<mxfile host="app.diagrams.net" modified="2024-04-10T23:22:47.139Z" agent="Mozilla/5.0 (Windows NT 10.0; Win64; x64) AppleWebKit/537.36 (KHTML, like Gecko) Chrome/123.0.0.0 Safari/537.36" etag="0-f0XT80jkYoPoPQDo-m" version="24.2.3" type="github">
  <diagram id="C5RBs43oDa-KdzZeNtuy" name="Page-1">
    <mxGraphModel dx="1050" dy="603" grid="1" gridSize="10" guides="1" tooltips="1" connect="1" arrows="1" fold="1" page="0" pageScale="1" pageWidth="827" pageHeight="1169" math="0" shadow="0">
      <root>
        <mxCell id="WIyWlLk6GJQsqaUBKTNV-0" />
        <mxCell id="WIyWlLk6GJQsqaUBKTNV-1" parent="WIyWlLk6GJQsqaUBKTNV-0" />
        <mxCell id="WIyWlLk6GJQsqaUBKTNV-2" value="" style="rounded=0;jettySize=auto;orthogonalLoop=1;fontSize=11;endArrow=block;endFill=0;endSize=8;strokeWidth=1;shadow=0;labelBackgroundColor=none;edgeStyle=orthogonalEdgeStyle;strokeColor=#182E3E;fontColor=default;labelBorderColor=none;textShadow=0;html=1;" parent="WIyWlLk6GJQsqaUBKTNV-1" source="WIyWlLk6GJQsqaUBKTNV-3" target="WIyWlLk6GJQsqaUBKTNV-6" edge="1">
          <mxGeometry relative="1" as="geometry" />
        </mxCell>
        <mxCell id="WIyWlLk6GJQsqaUBKTNV-3" value="Início" style="rounded=1;fontSize=12;glass=0;strokeWidth=1;shadow=0;labelBackgroundColor=none;fillColor=#56517E;strokeColor=#EEEEEE;fontColor=#FFFFFF;labelBorderColor=none;textShadow=0;whiteSpace=wrap;html=1;" parent="WIyWlLk6GJQsqaUBKTNV-1" vertex="1">
          <mxGeometry x="160" y="80" width="120" height="40" as="geometry" />
        </mxCell>
        <mxCell id="WIyWlLk6GJQsqaUBKTNV-4" value="Sim" style="rounded=0;jettySize=auto;orthogonalLoop=1;fontSize=11;endArrow=block;endFill=0;endSize=8;strokeWidth=1;shadow=0;labelBackgroundColor=none;edgeStyle=orthogonalEdgeStyle;strokeColor=#182E3E;fontColor=default;labelBorderColor=none;textShadow=0;html=1;" parent="WIyWlLk6GJQsqaUBKTNV-1" source="WIyWlLk6GJQsqaUBKTNV-6" target="WIyWlLk6GJQsqaUBKTNV-10" edge="1">
          <mxGeometry x="-0.5282" y="15" relative="1" as="geometry">
            <mxPoint as="offset" />
          </mxGeometry>
        </mxCell>
        <mxCell id="WIyWlLk6GJQsqaUBKTNV-5" value="Não" style="edgeStyle=orthogonalEdgeStyle;rounded=0;jettySize=auto;orthogonalLoop=1;fontSize=11;endArrow=block;endFill=0;endSize=8;strokeWidth=1;shadow=0;labelBackgroundColor=none;strokeColor=#182E3E;fontColor=default;labelBorderColor=none;textShadow=0;html=1;" parent="WIyWlLk6GJQsqaUBKTNV-1" source="WIyWlLk6GJQsqaUBKTNV-6" target="WIyWlLk6GJQsqaUBKTNV-7" edge="1">
          <mxGeometry x="0.5387" y="10" relative="1" as="geometry">
            <mxPoint as="offset" />
          </mxGeometry>
        </mxCell>
        <mxCell id="WIyWlLk6GJQsqaUBKTNV-6" value="Interface iniciou?" style="rhombus;shadow=0;fontFamily=Helvetica;fontSize=12;align=center;strokeWidth=1;spacing=6;spacingTop=-4;labelBackgroundColor=none;fillColor=#56517E;strokeColor=#EEEEEE;fontColor=#FFFFFF;labelBorderColor=none;textShadow=0;whiteSpace=wrap;html=1;" parent="WIyWlLk6GJQsqaUBKTNV-1" vertex="1">
          <mxGeometry x="170" y="170" width="100" height="80" as="geometry" />
        </mxCell>
        <mxCell id="Q0HhOCMZUJaKblz0_Jue-43" style="edgeStyle=orthogonalEdgeStyle;rounded=0;orthogonalLoop=1;jettySize=auto;html=1;entryX=1;entryY=0;entryDx=0;entryDy=0;strokeColor=#182E3E;" parent="WIyWlLk6GJQsqaUBKTNV-1" source="WIyWlLk6GJQsqaUBKTNV-7" target="WIyWlLk6GJQsqaUBKTNV-10" edge="1">
          <mxGeometry relative="1" as="geometry" />
        </mxCell>
        <mxCell id="WIyWlLk6GJQsqaUBKTNV-7" value="Tentar Novamente" style="rounded=1;fontSize=12;glass=0;strokeWidth=1;shadow=0;labelBackgroundColor=none;fillColor=#56517E;strokeColor=#EEEEEE;fontColor=#FFFFFF;labelBorderColor=none;textShadow=0;whiteSpace=wrap;html=1;" parent="WIyWlLk6GJQsqaUBKTNV-1" vertex="1">
          <mxGeometry x="380" y="210" width="120" height="40" as="geometry" />
        </mxCell>
        <mxCell id="WIyWlLk6GJQsqaUBKTNV-8" value="Não" style="rounded=0;jettySize=auto;orthogonalLoop=1;fontSize=11;endArrow=block;endFill=0;endSize=8;strokeWidth=1;shadow=0;labelBackgroundColor=none;edgeStyle=orthogonalEdgeStyle;strokeColor=#182E3E;fontColor=default;labelBorderColor=none;textShadow=0;html=1;" parent="WIyWlLk6GJQsqaUBKTNV-1" source="WIyWlLk6GJQsqaUBKTNV-10" target="WIyWlLk6GJQsqaUBKTNV-11" edge="1">
          <mxGeometry x="0.3333" y="20" relative="1" as="geometry">
            <mxPoint as="offset" />
          </mxGeometry>
        </mxCell>
        <mxCell id="WIyWlLk6GJQsqaUBKTNV-9" value="Sim" style="edgeStyle=orthogonalEdgeStyle;rounded=0;jettySize=auto;orthogonalLoop=1;fontSize=11;endArrow=block;endFill=0;endSize=8;strokeWidth=1;shadow=0;labelBackgroundColor=none;strokeColor=#182E3E;fontColor=default;labelBorderColor=none;textShadow=0;html=1;" parent="WIyWlLk6GJQsqaUBKTNV-1" source="WIyWlLk6GJQsqaUBKTNV-10" target="WIyWlLk6GJQsqaUBKTNV-12" edge="1">
          <mxGeometry x="-0.0512" y="15" relative="1" as="geometry">
            <mxPoint as="offset" />
          </mxGeometry>
        </mxCell>
        <mxCell id="WIyWlLk6GJQsqaUBKTNV-10" value="Páginas importadas corretamente?" style="rhombus;shadow=0;fontFamily=Helvetica;fontSize=12;align=center;strokeWidth=1;spacing=6;spacingTop=-4;labelBackgroundColor=none;fillColor=#56517E;strokeColor=#EEEEEE;fontColor=#FFFFFF;labelBorderColor=none;textShadow=0;whiteSpace=wrap;html=1;" parent="WIyWlLk6GJQsqaUBKTNV-1" vertex="1">
          <mxGeometry x="160" y="320" width="150" height="120" as="geometry" />
        </mxCell>
        <mxCell id="WIyWlLk6GJQsqaUBKTNV-11" value="Reiniciar" style="rounded=1;fontSize=12;glass=0;strokeWidth=1;shadow=0;labelBackgroundColor=none;fillColor=#56517E;strokeColor=#EEEEEE;fontColor=#FFFFFF;labelBorderColor=none;textShadow=0;whiteSpace=wrap;html=1;" parent="WIyWlLk6GJQsqaUBKTNV-1" vertex="1">
          <mxGeometry x="200" y="490" width="120" height="40" as="geometry" />
        </mxCell>
        <mxCell id="Q0HhOCMZUJaKblz0_Jue-4" value="" style="edgeStyle=orthogonalEdgeStyle;rounded=0;orthogonalLoop=1;jettySize=auto;entryX=0.5;entryY=0;entryDx=0;entryDy=0;strokeColor=#182E3E;fontColor=default;labelBackgroundColor=none;labelBorderColor=none;textShadow=0;html=1;" parent="WIyWlLk6GJQsqaUBKTNV-1" source="WIyWlLk6GJQsqaUBKTNV-12" target="Q0HhOCMZUJaKblz0_Jue-3" edge="1">
          <mxGeometry relative="1" as="geometry" />
        </mxCell>
        <mxCell id="WIyWlLk6GJQsqaUBKTNV-12" value="Continuar para o load da página inicial." style="rounded=1;fontSize=12;glass=0;strokeWidth=1;shadow=0;labelBackgroundColor=none;fillColor=#56517E;strokeColor=#EEEEEE;fontColor=#FFFFFF;labelBorderColor=none;textShadow=0;whiteSpace=wrap;html=1;" parent="WIyWlLk6GJQsqaUBKTNV-1" vertex="1">
          <mxGeometry x="360" y="310" width="140" height="50" as="geometry" />
        </mxCell>
        <mxCell id="Q0HhOCMZUJaKblz0_Jue-9" value="" style="edgeStyle=orthogonalEdgeStyle;rounded=0;orthogonalLoop=1;jettySize=auto;strokeColor=#182E3E;fontColor=default;labelBackgroundColor=none;labelBorderColor=none;textShadow=0;html=1;" parent="WIyWlLk6GJQsqaUBKTNV-1" source="Q0HhOCMZUJaKblz0_Jue-3" target="Q0HhOCMZUJaKblz0_Jue-8" edge="1">
          <mxGeometry relative="1" as="geometry" />
        </mxCell>
        <mxCell id="Q0HhOCMZUJaKblz0_Jue-16" value="&lt;font color=&quot;#000000&quot;&gt;Sim&lt;/font&gt;" style="edgeLabel;html=1;align=center;verticalAlign=middle;resizable=0;points=[];strokeColor=#EEEEEE;fontColor=#FFFFFF;fillColor=#56517E;labelBackgroundColor=none;" parent="Q0HhOCMZUJaKblz0_Jue-9" vertex="1" connectable="0">
          <mxGeometry x="-0.2195" y="-1" relative="1" as="geometry">
            <mxPoint y="-11" as="offset" />
          </mxGeometry>
        </mxCell>
        <mxCell id="Q0HhOCMZUJaKblz0_Jue-40" style="edgeStyle=orthogonalEdgeStyle;rounded=0;orthogonalLoop=1;jettySize=auto;html=1;strokeColor=#182E3E;entryX=0.5;entryY=0;entryDx=0;entryDy=0;" parent="WIyWlLk6GJQsqaUBKTNV-1" source="Q0HhOCMZUJaKblz0_Jue-3" target="Q0HhOCMZUJaKblz0_Jue-41" edge="1">
          <mxGeometry relative="1" as="geometry">
            <mxPoint x="470" y="739.9999999999998" as="targetPoint" />
          </mxGeometry>
        </mxCell>
        <mxCell id="Q0HhOCMZUJaKblz0_Jue-3" value="Clique dos botões funcionando?" style="rhombus;shadow=0;fontFamily=Helvetica;fontSize=12;align=center;strokeWidth=1;spacing=6;spacingTop=-4;labelBackgroundColor=none;fillColor=#56517E;strokeColor=#EEEEEE;fontColor=#FFFFFF;labelBorderColor=none;textShadow=0;whiteSpace=wrap;html=1;" parent="WIyWlLk6GJQsqaUBKTNV-1" vertex="1">
          <mxGeometry x="470" y="430" width="140" height="110" as="geometry" />
        </mxCell>
        <mxCell id="Q0HhOCMZUJaKblz0_Jue-26" value="" style="edgeStyle=orthogonalEdgeStyle;rounded=0;orthogonalLoop=1;jettySize=auto;html=1;strokeColor=#182E3E;" parent="WIyWlLk6GJQsqaUBKTNV-1" source="Q0HhOCMZUJaKblz0_Jue-8" target="Q0HhOCMZUJaKblz0_Jue-25" edge="1">
          <mxGeometry relative="1" as="geometry" />
        </mxCell>
        <mxCell id="Q0HhOCMZUJaKblz0_Jue-8" value="Abrir popup com entradas de texto." style="rounded=1;fontSize=12;glass=0;strokeWidth=1;shadow=0;labelBackgroundColor=none;fillColor=#56517E;strokeColor=#EEEEEE;fontColor=#FFFFFF;labelBorderColor=none;textShadow=0;whiteSpace=wrap;html=1;" parent="WIyWlLk6GJQsqaUBKTNV-1" vertex="1">
          <mxGeometry x="680" y="560" width="120" height="40" as="geometry" />
        </mxCell>
        <mxCell id="Q0HhOCMZUJaKblz0_Jue-17" style="edgeStyle=orthogonalEdgeStyle;rounded=0;orthogonalLoop=1;jettySize=auto;html=1;exitX=0.5;exitY=1;exitDx=0;exitDy=0;strokeColor=#182E3E;fontColor=default;labelBackgroundColor=none;" parent="WIyWlLk6GJQsqaUBKTNV-1" source="Q0HhOCMZUJaKblz0_Jue-3" target="Q0HhOCMZUJaKblz0_Jue-3" edge="1">
          <mxGeometry relative="1" as="geometry" />
        </mxCell>
        <mxCell id="Q0HhOCMZUJaKblz0_Jue-28" style="edgeStyle=orthogonalEdgeStyle;rounded=0;orthogonalLoop=1;jettySize=auto;html=1;strokeColor=#182E3E;" parent="WIyWlLk6GJQsqaUBKTNV-1" source="Q0HhOCMZUJaKblz0_Jue-25" target="Q0HhOCMZUJaKblz0_Jue-27" edge="1">
          <mxGeometry relative="1" as="geometry" />
        </mxCell>
        <mxCell id="Q0HhOCMZUJaKblz0_Jue-37" style="edgeStyle=orthogonalEdgeStyle;rounded=0;orthogonalLoop=1;jettySize=auto;html=1;strokeColor=#182E3E;entryX=0.5;entryY=0;entryDx=0;entryDy=0;" parent="WIyWlLk6GJQsqaUBKTNV-1" source="Q0HhOCMZUJaKblz0_Jue-25" target="Q0HhOCMZUJaKblz0_Jue-38" edge="1">
          <mxGeometry relative="1" as="geometry">
            <mxPoint x="790" y="949.9999999999998" as="targetPoint" />
          </mxGeometry>
        </mxCell>
        <mxCell id="Q0HhOCMZUJaKblz0_Jue-25" value="Entradas preenchidas corretamente?" style="rhombus;whiteSpace=wrap;html=1;fillColor=#56517E;strokeColor=#EEEEEE;fontColor=#FFFFFF;rounded=1;glass=0;strokeWidth=1;shadow=0;labelBackgroundColor=none;labelBorderColor=none;" parent="WIyWlLk6GJQsqaUBKTNV-1" vertex="1">
          <mxGeometry x="700" y="660" width="170" height="160" as="geometry" />
        </mxCell>
        <mxCell id="Q0HhOCMZUJaKblz0_Jue-32" style="edgeStyle=orthogonalEdgeStyle;rounded=0;orthogonalLoop=1;jettySize=auto;html=1;strokeColor=#182E3E;entryX=0.5;entryY=0;entryDx=0;entryDy=0;" parent="WIyWlLk6GJQsqaUBKTNV-1" source="Q0HhOCMZUJaKblz0_Jue-27" target="Q0HhOCMZUJaKblz0_Jue-33" edge="1">
          <mxGeometry relative="1" as="geometry">
            <mxPoint x="1050" y="920" as="targetPoint" />
          </mxGeometry>
        </mxCell>
        <mxCell id="Q0HhOCMZUJaKblz0_Jue-27" value="Calcular" style="rounded=1;fontSize=12;glass=0;strokeWidth=1;shadow=0;labelBackgroundColor=none;fillColor=#56517E;strokeColor=#EEEEEE;fontColor=#FFFFFF;labelBorderColor=none;textShadow=0;whiteSpace=wrap;html=1;" parent="WIyWlLk6GJQsqaUBKTNV-1" vertex="1">
          <mxGeometry x="980" y="688" width="120" height="40" as="geometry" />
        </mxCell>
        <mxCell id="Q0HhOCMZUJaKblz0_Jue-30" value="Text" style="text;html=1;align=center;verticalAlign=middle;resizable=0;points=[];autosize=1;strokeColor=none;fillColor=none;fontColor=#FFFFFF;" parent="WIyWlLk6GJQsqaUBKTNV-1" vertex="1">
          <mxGeometry x="865" y="698" width="50" height="30" as="geometry" />
        </mxCell>
        <mxCell id="Q0HhOCMZUJaKblz0_Jue-31" value="&lt;font color=&quot;#000000&quot;&gt;Sim&lt;/font&gt;" style="edgeLabel;html=1;align=center;verticalAlign=middle;resizable=0;points=[];strokeColor=#EEEEEE;fontColor=#FFFFFF;fillColor=#56517E;labelBackgroundColor=none;" parent="WIyWlLk6GJQsqaUBKTNV-1" vertex="1" connectable="0">
          <mxGeometry x="750" y="470" as="geometry">
            <mxPoint x="182" y="231" as="offset" />
          </mxGeometry>
        </mxCell>
        <mxCell id="Q0HhOCMZUJaKblz0_Jue-34" style="edgeStyle=orthogonalEdgeStyle;rounded=0;orthogonalLoop=1;jettySize=auto;html=1;strokeColor=#182E3E;entryX=0.5;entryY=0;entryDx=0;entryDy=0;exitX=1;exitY=0.5;exitDx=0;exitDy=0;" parent="WIyWlLk6GJQsqaUBKTNV-1" source="Q0HhOCMZUJaKblz0_Jue-33" target="Q0HhOCMZUJaKblz0_Jue-36" edge="1">
          <mxGeometry relative="1" as="geometry">
            <mxPoint x="1260" y="1060" as="targetPoint" />
            <Array as="points">
              <mxPoint x="1170" y="1010" />
              <mxPoint x="1170" y="1031" />
              <mxPoint x="1268" y="1031" />
            </Array>
          </mxGeometry>
        </mxCell>
        <mxCell id="Q0HhOCMZUJaKblz0_Jue-33" value="Cálculo feito corretamente e como o esperado?" style="rhombus;whiteSpace=wrap;html=1;fillColor=#56517E;strokeColor=#EEEEEE;fontColor=#FFFFFF;rounded=1;glass=0;strokeWidth=1;shadow=0;labelBackgroundColor=none;labelBorderColor=none;" parent="WIyWlLk6GJQsqaUBKTNV-1" vertex="1">
          <mxGeometry x="980" y="930" width="140" height="160" as="geometry" />
        </mxCell>
        <mxCell id="Q0HhOCMZUJaKblz0_Jue-35" value="&lt;span style=&quot;color: rgb(0, 0, 0); font-size: 11px;&quot;&gt;Sim&lt;/span&gt;" style="text;html=1;align=center;verticalAlign=middle;resizable=0;points=[];autosize=1;strokeColor=none;fillColor=none;fontColor=#FFFFFF;" parent="WIyWlLk6GJQsqaUBKTNV-1" vertex="1">
          <mxGeometry x="1208" y="1008" width="40" height="30" as="geometry" />
        </mxCell>
        <mxCell id="Q0HhOCMZUJaKblz0_Jue-36" value="Abrir Popup com o resultado" style="rounded=1;fontSize=12;glass=0;strokeWidth=1;shadow=0;labelBackgroundColor=none;fillColor=#56517E;strokeColor=#EEEEEE;fontColor=#FFFFFF;labelBorderColor=none;textShadow=0;whiteSpace=wrap;html=1;" parent="WIyWlLk6GJQsqaUBKTNV-1" vertex="1">
          <mxGeometry x="1208" y="1080" width="120" height="40" as="geometry" />
        </mxCell>
        <mxCell id="Q0HhOCMZUJaKblz0_Jue-38" value="Mostrar popup com o erro, dizendo para o usuário digitar uma entrada esperada pelo programa, mostrando-lhe um modelo." style="rounded=1;fontSize=12;glass=0;strokeWidth=1;shadow=0;labelBackgroundColor=none;fillColor=#56517E;strokeColor=#EEEEEE;fontColor=#FFFFFF;labelBorderColor=none;textShadow=0;whiteSpace=wrap;html=1;" parent="WIyWlLk6GJQsqaUBKTNV-1" vertex="1">
          <mxGeometry x="730" y="968" width="140" height="122" as="geometry" />
        </mxCell>
        <mxCell id="Q0HhOCMZUJaKblz0_Jue-39" value="&lt;span style=&quot;color: rgb(0, 0, 0); font-size: 11px;&quot;&gt;Não&lt;/span&gt;" style="text;html=1;align=center;verticalAlign=middle;resizable=0;points=[];autosize=1;strokeColor=none;fillColor=none;fontColor=#FFFFFF;" parent="WIyWlLk6GJQsqaUBKTNV-1" vertex="1">
          <mxGeometry x="750" y="850" width="40" height="30" as="geometry" />
        </mxCell>
        <mxCell id="Q0HhOCMZUJaKblz0_Jue-45" style="edgeStyle=orthogonalEdgeStyle;rounded=0;orthogonalLoop=1;jettySize=auto;html=1;entryX=0;entryY=0.5;entryDx=0;entryDy=0;strokeColor=#182E3E;" parent="WIyWlLk6GJQsqaUBKTNV-1" source="Q0HhOCMZUJaKblz0_Jue-41" target="WIyWlLk6GJQsqaUBKTNV-6" edge="1">
          <mxGeometry relative="1" as="geometry" />
        </mxCell>
        <mxCell id="Q0HhOCMZUJaKblz0_Jue-41" value="Reiniciar o app" style="rounded=1;fontSize=12;glass=0;strokeWidth=1;shadow=0;labelBackgroundColor=none;fillColor=#56517E;strokeColor=#EEEEEE;fontColor=#FFFFFF;labelBorderColor=none;textShadow=0;whiteSpace=wrap;html=1;" parent="WIyWlLk6GJQsqaUBKTNV-1" vertex="1">
          <mxGeometry x="410" y="760" width="120" height="40" as="geometry" />
        </mxCell>
        <mxCell id="Q0HhOCMZUJaKblz0_Jue-44" value="&lt;span style=&quot;color: rgb(0, 0, 0); font-size: 11px;&quot;&gt;Não&lt;/span&gt;" style="text;html=1;align=center;verticalAlign=middle;resizable=0;points=[];autosize=1;strokeColor=none;fillColor=none;fontColor=#FFFFFF;" parent="WIyWlLk6GJQsqaUBKTNV-1" vertex="1">
          <mxGeometry x="480" y="628" width="40" height="30" as="geometry" />
        </mxCell>
      </root>
    </mxGraphModel>
  </diagram>
</mxfile>
